<svg xmlns="http://www.w3.org/2000/svg" viewBox="0 0 1600 1000" preserveAspectRatio="xMidYMax slice" role="img" aria-label="Une station de ski en plein été, canons à neige allumés">
<style>
.smoke{animation:drift 31s linear infinite;transform-box:fill-box;transform-origin:50% 100%;opacity:0}
@keyframes drift{0%{transform:translate(0,0) scale(.5);opacity:0}12%{opacity:.95}100%{transform:translate(300px,-360px) scale(2.2);opacity:0}}
.blink{animation:blink 2.6s steps(1) infinite}
@keyframes blink{50%{opacity:.1}}

.spray{animation:spray 2.4s linear infinite;opacity:0}
@keyframes spray{0%{opacity:.9;transform:translate(0,0)}100%{opacity:0;transform:translate(-120px,-60px)}}
.chair{animation:chair 40s linear infinite}
@keyframes chair{from{transform:translate(0,0)}to{transform:translate(900px,-420px)}}
@media (prefers-reduced-motion:reduce){*{animation:none!important}.smoke{opacity:.8}}</style>
<rect width="1600" height="1000" fill="#0E0B14"/>
<g fill="#4A4266">
<circle cx="836" cy="286" r="1"/>
<circle cx="361" cy="214" r="1"/>
<circle cx="593" cy="34" r="1"/>
<circle cx="238" cy="311" r="1"/>
<circle cx="205" cy="100" r="1.4"/>
<circle cx="1420" cy="344" r="1.8"/>
<circle cx="1210" cy="227" r="1.4"/>
<circle cx="733" cy="57" r="1.4"/>
<circle cx="579" cy="336" r="1"/>
<circle cx="229" cy="281" r="1"/>
<circle cx="1205" cy="68" r="1.4"/>
<circle cx="645" cy="75" r="1.4"/>
<circle cx="71" cy="196" r="1.8"/>
<circle cx="196" cy="264" r="1.8"/>
<circle cx="390" cy="116" r="1"/>
<circle cx="529" cy="402" r="1"/>
<circle cx="1590" cy="45" r="1"/>
<circle cx="1379" cy="438" r="1.8"/>
<circle cx="1453" cy="39" r="1.4"/>
<circle cx="756" cy="445" r="1.8"/>
<circle cx="1291" cy="252" r="1"/>
<circle cx="477" cy="267" r="1.8"/>
<circle cx="1508" cy="370" r="1.4"/>
<circle cx="1262" cy="439" r="1"/>
<circle cx="569" cy="100" r="1"/>
<circle cx="457" cy="472" r="1"/>
<circle cx="1187" cy="405" r="1.4"/>
<circle cx="730" cy="308" r="1"/>
<circle cx="828" cy="77" r="1.4"/>
<circle cx="696" cy="77" r="1"/>
<circle cx="1242" cy="386" r="1"/>
<circle cx="887" cy="409" r="1"/>
<circle cx="1384" cy="339" r="1.8"/>
<circle cx="250" cy="93" r="1"/>
<circle cx="1315" cy="396" r="1"/>
<circle cx="1269" cy="352" r="1.4"/>
<circle cx="1321" cy="52" r="1.4"/>
<circle cx="152" cy="23" r="1.8"/>
<circle cx="560" cy="111" r="1"/>
<circle cx="124" cy="163" r="1.8"/>
<circle cx="537" cy="53" r="1.4"/>
<circle cx="1118" cy="428" r="1.8"/>
<circle cx="133" cy="165" r="1.8"/>
<circle cx="614" cy="225" r="1.8"/>
<circle cx="618" cy="300" r="1.8"/>
<circle cx="149" cy="182" r="1.4"/>
<circle cx="269" cy="87" r="1"/>
<circle cx="152" cy="246" r="1.8"/>
<circle cx="1333" cy="196" r="1.8"/>
<circle cx="172" cy="160" r="1"/>
<circle cx="570" cy="401" r="1.4"/>
<circle cx="497" cy="37" r="1"/>
<circle cx="1146" cy="269" r="1"/>
<circle cx="1032" cy="159" r="1.8"/>
<circle cx="1417" cy="91" r="1.8"/>
<circle cx="512" cy="87" r="1"/>
<circle cx="1223" cy="207" r="1"/>
<circle cx="653" cy="186" r="1.8"/>
<circle cx="297" cy="22" r="1"/>
<circle cx="830" cy="345" r="1.8"/>
<circle cx="782" cy="314" r="1.8"/>
<circle cx="449" cy="132" r="1"/>
<circle cx="1416" cy="95" r="1"/>
<circle cx="683" cy="179" r="1"/>
<circle cx="1097" cy="376" r="1"/>
<circle cx="1244" cy="86" r="1"/>
<circle cx="384" cy="298" r="1"/>
<circle cx="158" cy="81" r="1"/>
<circle cx="801" cy="293" r="1"/>
<circle cx="1307" cy="471" r="1.4"/>
<circle cx="824" cy="85" r="1.4"/>
<circle cx="1294" cy="102" r="1"/>
<circle cx="659" cy="297" r="1.4"/>
<circle cx="1337" cy="338" r="1.4"/>
<circle cx="33" cy="37" r="1"/>
<circle cx="239" cy="119" r="1"/>
<circle cx="339" cy="58" r="1"/>
<circle cx="1151" cy="79" r="1"/>
<circle cx="878" cy="377" r="1.4"/>
<circle cx="773" cy="443" r="1.4"/>
<circle cx="508" cy="319" r="1.4"/>
<circle cx="305" cy="173" r="1.4"/>
<circle cx="1583" cy="227" r="1"/>
<circle cx="1351" cy="108" r="1.8"/>
<circle cx="366" cy="165" r="1.8"/>
<circle cx="998" cy="261" r="1.4"/>
<circle cx="608" cy="372" r="1.8"/>
<circle cx="1016" cy="213" r="1.8"/>
<circle cx="937" cy="77" r="1.4"/>
<circle cx="1195" cy="118" r="1.4"/>
</g>
<circle cx="260" cy="160" r="44" fill="#1A1624"/><circle cx="276" cy="150" r="40" fill="#0E0B14"/>
<path d="M-40 830 L380 330 L560 520 L760 250 L1080 640 L1250 420 L1640 830 Z" fill="#1C1726"/>
<path d="M380 330 L440 402 L420 420 L396 398 L372 420 L340 378 Z M760 250 L850 360 L820 372 L786 344 L760 372 L720 334 L690 336 Z M1250 420 L1310 482 L1280 490 L1258 470 L1232 490 L1210 462 Z" fill="#3B3152"/>
<path d="M-40 830 L300 560 L520 700 L760 520 L1000 740 L1200 600 L1640 830 Z" fill="#16121E"/>
<path d="M620 830 C 700 720 760 620 780 540 L 840 540 C 860 640 930 740 1010 830 Z" fill="#2E2940"/>
<path d="M380 830 L1280 410" stroke="#2E2740" stroke-width="2"/><path d="M550 830 L560 700 L570 830 M553.3 760 L566.7 760 M555.6 710 L564.4 710 M550 728 L570 728" stroke="#2E2740" stroke-width="3" fill="none"/><path d="M870 830 L880 560 L890 830 M873.3 760 L886.7 760 M875.6 710 L884.4 710 M870 588 L890 588" stroke="#2E2740" stroke-width="3" fill="none"/><path d="M1170 830 L1180 420 L1190 830 M1173.3 760 L1186.7 760 M1175.6 710 L1184.4 710 M1170 448 L1190 448" stroke="#2E2740" stroke-width="3" fill="none"/>
<g class="chair" style="animation-delay:-0s"><g transform="translate(380 830)"><path d="M0 0 v14 h12 v-6" stroke="#2C2540" stroke-width="3" fill="none"/></g></g>
<g class="chair" style="animation-delay:-6.7s"><g transform="translate(380 830)"><path d="M0 0 v14 h12 v-6" stroke="#2C2540" stroke-width="3" fill="none"/></g></g>
<g class="chair" style="animation-delay:-13.3s"><g transform="translate(380 830)"><path d="M0 0 v14 h12 v-6" stroke="#2C2540" stroke-width="3" fill="none"/></g></g>
<g class="chair" style="animation-delay:-20s"><g transform="translate(380 830)"><path d="M0 0 v14 h12 v-6" stroke="#2C2540" stroke-width="3" fill="none"/></g></g>
<g class="chair" style="animation-delay:-26.7s"><g transform="translate(380 830)"><path d="M0 0 v14 h12 v-6" stroke="#2C2540" stroke-width="3" fill="none"/></g></g>
<g class="chair" style="animation-delay:-33.3s"><g transform="translate(380 830)"><path d="M0 0 v14 h12 v-6" stroke="#2C2540" stroke-width="3" fill="none"/></g></g>
<g transform="translate(700 760)"><rect x="-3" y="-40" width="6" height="40" fill="#2A2239"/><path d="M-4 -44 L-40 -58 L-40 -44 L-4 -36 Z" fill="#3B3152"/><circle cx="0" cy="-36" r="1.6" fill="#E2B55A" class="blink" style="animation-delay:1.4s"/></g>
<circle class="spray" style="animation-delay:-1.5s" cx="659" cy="714" r="2.5" fill="#E9E4F5"/><circle class="spray" style="animation-delay:-2.3s" cx="662" cy="702" r="2" fill="#E9E4F5"/><circle class="spray" style="animation-delay:-1.9s" cx="657" cy="712" r="1.5" fill="#E9E4F5"/><circle class="spray" style="animation-delay:-2.2s" cx="655" cy="707" r="2" fill="#E9E4F5"/><circle class="spray" style="animation-delay:-2.1s" cx="660" cy="710" r="1.5" fill="#E9E4F5"/><circle class="spray" style="animation-delay:-1.4s" cx="654" cy="713" r="1.5" fill="#E9E4F5"/><circle class="spray" style="animation-delay:-1s" cx="656" cy="714" r="2" fill="#E9E4F5"/><circle class="spray" style="animation-delay:-0.4s" cx="655" cy="704" r="2.5" fill="#E9E4F5"/><circle class="spray" style="animation-delay:-1.5s" cx="656" cy="704" r="1.5" fill="#E9E4F5"/><circle class="spray" style="animation-delay:-2.3s" cx="654" cy="705" r="1.5" fill="#E9E4F5"/><circle class="spray" style="animation-delay:-2.3s" cx="656" cy="704" r="2" fill="#E9E4F5"/><circle class="spray" style="animation-delay:-0.8s" cx="657" cy="710" r="2.5" fill="#E9E4F5"/><circle class="spray" style="animation-delay:-1.5s" cx="656" cy="713" r="1.5" fill="#E9E4F5"/><circle class="spray" style="animation-delay:-2.3s" cx="660" cy="706" r="1.5" fill="#E9E4F5"/>
<g transform="translate(820 640)"><rect x="-3" y="-40" width="6" height="40" fill="#2A2239"/><path d="M-4 -44 L-40 -58 L-40 -44 L-4 -36 Z" fill="#3B3152"/><circle cx="0" cy="-36" r="1.6" fill="#E2B55A" class="blink" style="animation-delay:1.6s"/></g>
<circle class="spray" style="animation-delay:-0.9s" cx="776" cy="584" r="2" fill="#E9E4F5"/><circle class="spray" style="animation-delay:-0.2s" cx="778" cy="591" r="2.5" fill="#E9E4F5"/><circle class="spray" style="animation-delay:-0s" cx="779" cy="583" r="2" fill="#E9E4F5"/><circle class="spray" style="animation-delay:-0.9s" cx="778" cy="589" r="2.5" fill="#E9E4F5"/><circle class="spray" style="animation-delay:-0.8s" cx="781" cy="589" r="2.5" fill="#E9E4F5"/><circle class="spray" style="animation-delay:-0.4s" cx="778" cy="582" r="2.5" fill="#E9E4F5"/><circle class="spray" style="animation-delay:-0.9s" cx="780" cy="582" r="2.5" fill="#E9E4F5"/><circle class="spray" style="animation-delay:-1.9s" cx="779" cy="588" r="2.5" fill="#E9E4F5"/><circle class="spray" style="animation-delay:-2s" cx="781" cy="582" r="2.5" fill="#E9E4F5"/><circle class="spray" style="animation-delay:-0.4s" cx="777" cy="583" r="1.5" fill="#E9E4F5"/><circle class="spray" style="animation-delay:-2.2s" cx="781" cy="587" r="2.5" fill="#E9E4F5"/><circle class="spray" style="animation-delay:-0.9s" cx="782" cy="586" r="2" fill="#E9E4F5"/><circle class="spray" style="animation-delay:-0.3s" cx="779" cy="586" r="1.5" fill="#E9E4F5"/><circle class="spray" style="animation-delay:-1s" cx="775" cy="585" r="2" fill="#E9E4F5"/>
<g transform="translate(960 780)"><rect x="-3" y="-40" width="6" height="40" fill="#2A2239"/><path d="M-4 -44 L-40 -58 L-40 -44 L-4 -36 Z" fill="#3B3152"/><circle cx="0" cy="-36" r="1.6" fill="#E2B55A" class="blink" style="animation-delay:1.9s"/></g>
<circle class="spray" style="animation-delay:-1.2s" cx="919" cy="724" r="2" fill="#E9E4F5"/><circle class="spray" style="animation-delay:-0.7s" cx="922" cy="723" r="2" fill="#E9E4F5"/><circle class="spray" style="animation-delay:-1.6s" cx="918" cy="724" r="1.5" fill="#E9E4F5"/><circle class="spray" style="animation-delay:-1.5s" cx="918" cy="729" r="1.5" fill="#E9E4F5"/><circle class="spray" style="animation-delay:-1.7s" cx="915" cy="731" r="2.5" fill="#E9E4F5"/><circle class="spray" style="animation-delay:-2.2s" cx="914" cy="725" r="2.5" fill="#E9E4F5"/><circle class="spray" style="animation-delay:-1.4s" cx="918" cy="729" r="2.5" fill="#E9E4F5"/><circle class="spray" style="animation-delay:-1s" cx="914" cy="732" r="1.5" fill="#E9E4F5"/><circle class="spray" style="animation-delay:-1.9s" cx="919" cy="725" r="1.5" fill="#E9E4F5"/><circle class="spray" style="animation-delay:-2.4s" cx="916" cy="732" r="2" fill="#E9E4F5"/><circle class="spray" style="animation-delay:-0.3s" cx="920" cy="727" r="1.5" fill="#E9E4F5"/><circle class="spray" style="animation-delay:-0.1s" cx="920" cy="726" r="1.5" fill="#E9E4F5"/><circle class="spray" style="animation-delay:-1.1s" cx="916" cy="730" r="2" fill="#E9E4F5"/><circle class="spray" style="animation-delay:-2.3s" cx="919" cy="729" r="2" fill="#E9E4F5"/>
<path d="M1320 830 V740 L1390 690 L1460 740 V830 Z" fill="#2A2239"/><rect x="1420" y="690" width="14" height="30" fill="#251F33"/><rect x="1338" y="756" width="18" height="14" fill="#E9E4F5" opacity=".3"/><rect x="1338" y="784" width="18" height="14" fill="#E9E4F5" opacity=".3"/><rect x="1372" y="756" width="18" height="14" fill="#A48BFF" opacity=".55"/><rect x="1406" y="756" width="18" height="14" fill="#A48BFF" opacity=".55"/><rect x="1406" y="784" width="18" height="14" fill="#A48BFF" opacity=".55"/><g transform="translate(1427 690)"><g class="smoke" style="animation-duration:26s;animation-delay:0s"><circle r="12" fill="#3A3252"/><circle cx="10.8" cy="-4.3" r="9.2" fill="#3A3252"/><circle cx="-8.2" cy="-3.2" r="8.2" fill="#3A3252"/><circle cx="3.2" cy="-10.8" r="7.7" fill="#3A3252"/></g></g><g transform="translate(1427 690)"><g class="smoke" style="animation-duration:26s;animation-delay:-5.2s"><circle r="12" fill="#40375A"/><circle cx="10.8" cy="-4.3" r="9.2" fill="#40375A"/><circle cx="-8.2" cy="-3.2" r="8.2" fill="#40375A"/><circle cx="3.2" cy="-10.8" r="7.7" fill="#40375A"/></g></g><g transform="translate(1427 690)"><g class="smoke" style="animation-duration:26s;animation-delay:-10.4s"><circle r="12" fill="#352D4B"/><circle cx="10.8" cy="-4.3" r="9.2" fill="#352D4B"/><circle cx="-8.2" cy="-3.2" r="8.2" fill="#352D4B"/><circle cx="3.2" cy="-10.8" r="7.7" fill="#352D4B"/></g></g><g transform="translate(1427 690)"><g class="smoke" style="animation-duration:26s;animation-delay:-15.6s"><circle r="12" fill="#3A3252"/><circle cx="10.8" cy="-4.3" r="9.2" fill="#3A3252"/><circle cx="-8.2" cy="-3.2" r="8.2" fill="#3A3252"/><circle cx="3.2" cy="-10.8" r="7.7" fill="#3A3252"/></g></g><g transform="translate(1427 690)"><g class="smoke" style="animation-duration:26s;animation-delay:-20.8s"><circle r="12" fill="#40375A"/><circle cx="10.8" cy="-4.3" r="9.2" fill="#40375A"/><circle cx="-8.2" cy="-3.2" r="8.2" fill="#40375A"/><circle cx="3.2" cy="-10.8" r="7.7" fill="#40375A"/></g></g>
<rect y="830" width="1600" height="170" fill="#0A080E"/>
<rect y="830" width="1600" height="2" fill="#16121E"/></svg>
